<?xml version="1.0" encoding="UTF-8"?>
<svg version="1.1" xmlns="http://www.w3.org/2000/svg" width="128" height="128">
<path d="M0 0 C6.8586228 3.06155683 9.44957365 9.27119786 12.9375 15.625 C13.59225133 16.7925084 14.24853101 17.95916086 14.90625 19.125 C16.27009306 21.54523661 17.62731808 23.96900594 18.97998047 26.39550781 C22.09215808 31.96545321 25.30118626 37.4795278 28.5 43 C29.73740725 45.14428427 30.97438404 47.28881701 32.2109375 49.43359375 C34.49529301 53.39334212 36.78100906 57.35229827 39.06854248 61.31021118 C40.09345403 63.08362608 41.11806123 64.85721646 42.14257812 66.63085938 C43.42452738 68.84995773 44.70704107 71.06873016 45.99023438 73.28710938 C47.13968556 75.27737457 48.2857098 77.26962426 49.42773438 79.26416016 C50.43740817 81.02105527 51.45861417 82.77140102 52.49414062 84.51318359 C55.02833482 88.85686537 56.66028563 92.42332851 57.25 97.5 C57.45496094 99.16675781 57.45496094 99.16675781 57.6640625 100.8671875 C57.77492188 101.90101562 57.88578125 102.93484375 58 104 C58.11085938 104.80695313 58.22171875 105.61390625 58.3359375 106.4453125 C58.88320265 110.57198754 59.04210729 114.61007499 59.0234375 118.7734375 C59.02005371 119.75489746 59.01666992 120.73635742 59.01318359 121.74755859 C59.00665771 122.86251709 59.00665771 122.86251709 59 124 C44.10955576 124.09350894 29.2191343 124.16401128 14.32845879 124.20724869 C7.41418508 124.22785969 0.50009399 124.25595198 -6.4140625 124.30175781 C-13.08600248 124.34593785 -19.75771351 124.36913472 -26.42980576 124.37950897 C-28.9759304 124.38690258 -31.5220446 124.40134041 -34.06808853 124.42292023 C-37.63302339 124.45193564 -41.19717318 124.45595661 -44.76220703 124.45410156 C-45.81597031 124.46848267 -46.86973358 124.48286377 -47.95542908 124.49768066 C-53.96427727 124.46382328 -57.4277508 124.01373549 -62 120 C-66.25474155 114.59386962 -65.75257738 108.57471451 -65 102 C-63.52227602 97.97604394 -60.66269334 95.17472417 -57 93 C-53.06757628 91.63041946 -48.98667596 91.84691927 -44.875 91.82421875 C-43.26561177 91.80103107 -41.6562367 91.77691417 -40.046875 91.75195312 C-37.51878893 91.71678617 -34.99119208 91.68745338 -32.46289062 91.67407227 C-30.01633306 91.65860279 -27.57118508 91.61841915 -25.125 91.57421875 C-24.3707373 91.57612717 -23.61647461 91.57803558 -22.83935547 91.58000183 C-19.31509319 91.49785967 -17.37112759 91.29001753 -14.5546875 89.08911133 C-11.83063878 85.42867086 -11.6117562 82.74360054 -11.640625 78.26171875 C-12.21056866 74.67479071 -14.20226049 73.13161106 -17 71 C-19.73678725 69.63160637 -22.04264424 69.78365182 -25.1015625 69.68359375 C-26.31328125 69.64169922 -27.525 69.59980469 -28.7734375 69.55664062 C-30.04445312 69.51732422 -31.31546875 69.47800781 -32.625 69.4375 C-33.90375 69.39431641 -35.1825 69.35113281 -36.5 69.30664062 C-39.66655348 69.20030114 -42.83318753 69.09827167 -46 69 C-46 67.68 -46 66.36 -46 65 C-41.83746725 64.90061905 -37.67557521 64.82829383 -33.51220703 64.78027344 C-32.09802205 64.76024157 -30.68391903 64.73300752 -29.27001953 64.69824219 C-27.22928581 64.64934511 -25.1896531 64.62694877 -23.1484375 64.609375 C-21.31031494 64.5779541 -21.31031494 64.5779541 -19.43505859 64.54589844 C-14.50685686 65.19738779 -11.38373673 67.37768797 -8.1875 71.125 C-5.97179175 76.48934628 -5.01011452 82.35419747 -7.1875 87.875 C-10.03920867 92.79173908 -12.57328831 95.28160266 -18 97 C-20.76080048 97.18587779 -23.42813525 97.27712549 -26.1875 97.2734375 C-27.78906957 97.29371969 -29.39063203 97.31457034 -30.9921875 97.3359375 C-33.500387 97.35855161 -36.00830469 97.37501934 -38.51660156 97.38085938 C-40.94907664 97.39039475 -43.38030519 97.42417074 -45.8125 97.4609375 C-46.55846436 97.45589203 -47.30442871 97.45084656 -48.07299805 97.44564819 C-51.7131131 97.51420487 -53.83707493 97.89800998 -56.94921875 99.84619141 C-59.64535092 102.67777212 -59.96286923 104.49873456 -60.25 108.375 C-59.98179349 112.26399436 -59.4129723 113.98378462 -57 117 C-54.13897294 118.74443587 -52.0145815 119.24879249 -48.68463135 119.24050903 C-47.82930313 119.24325836 -46.97397491 119.24600769 -46.09272766 119.24884033 C-44.69766243 119.2380545 -44.69766243 119.2380545 -43.27441406 119.22705078 C-41.79587196 119.22748886 -41.79587196 119.22748886 -40.28746033 119.22793579 C-37.03009227 119.22654269 -33.77295309 119.21098223 -30.515625 119.1953125 C-28.25689824 119.1915823 -25.99816987 119.18873536 -23.73944092 119.18673706 C-17.7947747 119.17910114 -11.85020622 119.15945291 -5.90557861 119.1373291 C0.16059039 119.11686985 6.22677519 119.10773517 12.29296875 119.09765625 C24.19535544 119.07620706 36.09766959 119.04207153 48 119 C46.80503906 118.20335938 46.80503906 118.20335938 45.5859375 117.390625 C42.390625 115.26041667 39.1953125 113.13020833 36 111 C34.91259521 110.29740051 33.82519043 109.59480103 32.70483398 108.87091064 C29.8491442 106.89565432 28.68754458 105.44845879 27.0625 102.421875 C26.5677417 101.52122314 26.0729834 100.62057129 25.56323242 99.69262695 C24.78943237 98.23602661 24.78943237 98.23602661 24 96.75 C22.85198954 94.65399992 21.70219403 92.55897674 20.55078125 90.46484375 C19.96377441 89.38960449 19.37676758 88.31436523 18.77197266 87.20654297 C15.99945174 82.18941846 13.09485406 77.25231183 10.1875 72.3125 C4.24821192 62.18023054 -1.59616166 51.99626417 -7.4074707 41.7902832 C-8.34852661 40.13838989 -8.34852661 40.13838989 -9.30859375 38.453125 C-9.91646729 37.38143066 -10.52434082 36.30973633 -11.15063477 35.20556641 C-12.40831924 33.02557999 -13.6938776 30.86148949 -15.00366211 28.71240234 C-15.63925049 27.6652002 -16.27483887 26.61799805 -16.9296875 25.5390625 C-17.78989502 24.15001709 -17.78989502 24.15001709 -18.66748047 22.73291016 C-20.8840857 18.18679822 -21.00010481 13.90527599 -20 9 C-15.85308925 0.39899993 -9.07196773 -1.5979749 0 0 Z " fill="#030102" transform="translate(67,2)"/>
<path d="M0 0 C0.60920288 1.06806885 0.60920288 1.06806885 1.23071289 2.15771484 C8.75585004 15.34753478 16.29163732 28.53104695 23.875 41.6875 C24.48996338 42.75669678 25.10492676 43.82589355 25.73852539 44.92749023 C28.51499278 49.74403972 31.31236308 54.54317157 34.1953125 59.296875 C34.67371582 60.09005127 35.15211914 60.88322754 35.64501953 61.70043945 C36.51974688 63.14460643 37.40296248 64.58368183 38.29638672 66.01635742 C39.27473897 67.63333883 40.14884875 69.31259265 41 71 C39.56770819 75.29687544 36.35400238 76.51455902 32.625 78.6875 C31.59632812 79.31108398 31.59632812 79.31108398 30.546875 79.94726562 C25.39381927 83 25.39381927 83 22 83 C21.59386475 82.2879541 21.18772949 81.5759082 20.76928711 80.84228516 C13.24415479 67.6524737 5.70951886 54.46827826 -1.875 41.3125 C-2.49068848 40.24402832 -3.10637695 39.17555664 -3.74072266 38.07470703 C-6.52190776 33.2571237 -9.31699642 28.44927753 -12.16015625 23.66796875 C-12.63404785 22.87028076 -13.10793945 22.07259277 -13.59619141 21.25073242 C-14.4627856 19.79657664 -15.33328704 18.34473906 -16.20849609 16.89575195 C-19 12.2181456 -19 12.2181456 -19 10 C-17.47119141 8.85498047 -17.47119141 8.85498047 -15.3515625 7.6171875 C-14.59359375 7.17246094 -13.835625 6.72773438 -13.0546875 6.26953125 C-11.85199219 5.57923828 -11.85199219 5.57923828 -10.625 4.875 C-9.43390625 4.17310547 -9.43390625 4.17310547 -8.21875 3.45703125 C-2.2722531 0 -2.2722531 0 0 0 Z " fill="#F36A80" transform="translate(77,21)"/>
<path d="M0 0 C3.6184116 2.75313926 5.97040302 5.94080603 8 10 C8 10.99 8 11.98 8 13 C5.40011448 14.50787377 2.79559803 16.00645461 0.1875 17.5 C-0.55048828 17.92925781 -1.28847656 18.35851562 -2.04882812 18.80078125 C-3.11713867 19.40986328 -3.11713867 19.40986328 -4.20703125 20.03125 C-4.8616333 20.40830078 -5.51623535 20.78535156 -6.19067383 21.17382812 C-8 22 -8 22 -11 22 C-14.28719327 16.48221129 -15.84647986 12.45440894 -15 6 C-11.0876262 -0.12938563 -6.98195195 -1.07693886 0 0 Z " fill="#606974" transform="translate(66,6)"/>
<path d="M0 0 C0.33801152 2.54112232 0.67053379 5.08276746 1 7.625 C1.09539062 8.33785156 1.19078125 9.05070312 1.2890625 9.78515625 C1.81606101 13.88821609 2.10466984 17.85245742 2 22 C-2.15207294 19.99381363 -5.90997071 17.5406621 -9.75 15 C-10.44738281 14.54882812 -11.14476563 14.09765625 -11.86328125 13.6328125 C-13.61243603 12.47583732 -15.31123649 11.24346766 -17 10 C-17 9.34 -17 8.68 -17 8 C-14.73354942 6.65869239 -12.46239903 5.32683766 -10.1875 4 C-9.54490234 3.6184375 -8.90230469 3.236875 -8.24023438 2.84375 C-3.33984375 0 -3.33984375 0 0 0 Z " fill="#E2BC9B" transform="translate(120,98)"/>
</svg>
